tugOfWar2_states
version=1
nRows=6
nColumns=13
inDegrees=yes

# SIMM Motion File Header:
name tugOfWar2_states
datacolumns 13
datarows 6
otherdata 1
range 0.000000 4.000000
endheader
time	blockToGround_xRotation	blockToGround_yRotation	blockToGround_zRotation	blockToGround_xTranslation	blockToGround_yTranslation	blockToGround_zTranslation	blockToGround_xRotation_u	blockToGround_yRotation_u	blockToGround_zRotation_u	blockToGround_xTranslation_u	blockToGround_yTranslation_u	blockToGround_zTranslation_u
      0.00000000	      0.00000000	      0.00000000	      0.00000000	      0.10000000	      0.06000000	      0.00000000	      0.00000000	      0.00000000	      0.00000000	      0.10000000	      0.00000000	      0.00000000
      0.01000000	      0.00000000	      0.00000000	      0.00000000	      0.10100000	      0.05950967	      0.00000000	      0.00000000	      0.00000000	      0.00000000	      0.10000000	     -0.09806650	      0.00000000
      0.06000000	      0.00000000	      0.00000000	      0.00000000	      0.10600000	      0.04234803	      0.00000000	      0.00000000	      0.00000000	      0.00000000	      0.10000000	     -0.58839900	      0.00000000
      0.31000000	      0.00000000	      0.00000000	      0.00000000	      0.13100000	     -0.41120953	      0.00000000	      0.00000000	      0.00000000	      0.00000000	      0.10000000	     -3.04006150	      0.00000000
      1.56000000	      0.00000000	      0.00000000	      0.00000000	      0.25600000	    -11.87273172	      0.00000000	      0.00000000	      0.00000000	      0.00000000	      0.10000000	    -15.29837400	      0.00000000
      4.00000000	      0.00000000	      0.00000000	      0.00000000	      0.50000000	    -78.39320000	      0.00000000	      0.00000000	      0.00000000	      0.00000000	      0.10000000	    -39.22660000	      0.00000000
